<?xml version="1.0" standalone="no"?>
<!DOCTYPE svg PUBLIC "-//W3C//DTD SVG 20010904//EN"
 "http://www.w3.org/TR/2001/REC-SVG-20010904/DTD/svg10.dtd">
<svg version="1.0" xmlns="http://www.w3.org/2000/svg"
 width="835.000000pt" height="835.000000pt" viewBox="0 0 835.000000 835.000000"
 preserveAspectRatio="xMidYMid meet">
<metadata>
Created by potrace 1.14, written by Peter Selinger 2001-2017
</metadata>
<g transform="translate(0.000000,835.000000) scale(0.100000,-0.100000)"
fill="#000000" stroke="none">
<path d="M2210 8344 c-159 -12 -431 -73 -613 -138 -148 -53 -480 -221 -507
-256 -3 -4 -15 -12 -27 -19 -57 -29 -253 -191 -353 -291 -73 -73 -172 -189
-238 -280 -34 -47 -66 -89 -70 -95 -27 -35 -112 -187 -157 -280 -101 -207
-144 -335 -205 -610 -35 -157 -35 -184 -35 -2210 0 -2044 0 -2015 36 -2200 66
-327 186 -622 362 -885 120 -178 335 -419 472 -526 28 -21 52 -41 55 -44 15
-16 202 -145 265 -182 62 -37 312 -158 370 -178 137 -48 248 -81 380 -110 159
-35 136 -35 2245 -35 l2065 0 120 27 c200 44 301 72 360 98 11 5 46 18 78 29
76 28 251 113 346 169 73 43 231 149 241 162 3 3 23 19 45 36 105 77 302 274
379 379 17 22 33 42 36 45 13 10 119 168 162 241 56 95 141 270 169 346 11 32
24 67 29 78 26 59 54 160 98 360 l27 120 0 2065 c0 2110 0 2088 -35 2245 -36
159 -82 318 -109 380 -5 11 -19 45 -31 75 -29 73 -116 246 -141 281 -10 15
-19 29 -19 32 0 10 -137 210 -165 241 -5 6 -28 34 -49 61 -60 77 -271 282
-366 356 -322 249 -685 414 -1055 479 -38 7 -90 17 -115 23 -32 8 -638 11
-2025 12 -1089 1 -2000 0 -2025 -1z m3808 -655 c147 -10 281 -29 357 -51 88
-24 244 -82 315 -116 72 -34 250 -137 260 -151 3 -3 32 -26 65 -50 121 -91
295 -273 371 -391 16 -25 32 -46 37 -48 4 -2 7 -8 7 -14 0 -5 8 -22 18 -36 76
-109 172 -349 208 -517 45 -211 44 -175 44 -2147 0 -1253 -3 -1893 -10 -1941
-15 -99 -38 -224 -52 -272 -48 -177 -170 -438 -251 -540 -4 -5 -31 -41 -60
-80 -67 -90 -223 -247 -312 -312 -38 -29 -74 -56 -80 -60 -27 -21 -96 -63
-104 -63 -5 0 -11 -4 -13 -8 -5 -14 -208 -109 -298 -140 -100 -35 -145 -47
-220 -62 -195 -40 -178 -39 -2119 -40 -1224 0 -1897 4 -1940 10 -185 29 -265
46 -361 77 -119 39 -340 143 -415 195 -169 119 -351 287 -436 403 -24 33 -47
62 -50 65 -14 10 -117 188 -151 260 -34 71 -91 227 -116 315 -20 68 -41 214
-52 348 -14 177 -14 3532 1 3704 20 245 77 473 164 651 19 40 35 77 35 82 0 6
5 10 10 10 6 0 10 5 10 10 0 9 91 151 147 230 55 77 236 258 313 313 330 235
610 339 978 366 178 13 3523 13 3700 0z"/>
<path d="M6602 7034 c-65 -32 -128 -95 -155 -154 -31 -65 -30 -215 0 -282 51
-112 172 -188 298 -188 125 0 247 76 298 188 31 67 31 217 1 283 -27 59 -90
120 -156 153 -44 22 -65 26 -143 26 -78 0 -99 -4 -143 -26z"/>
<path d="M3890 6409 c-117 -20 -227 -42 -280 -56 -30 -8 -68 -18 -85 -23 -32
-8 -57 -17 -90 -30 -11 -4 -42 -16 -70 -25 -49 -17 -275 -124 -285 -135 -3 -3
-21 -14 -40 -24 -304 -167 -639 -502 -806 -806 -10 -19 -21 -37 -24 -40 -3 -3
-29 -52 -57 -110 -61 -122 -105 -235 -133 -335 -42 -152 -50 -191 -75 -354
-18 -112 -20 -481 -4 -580 55 -348 126 -559 279 -836 48 -87 152 -234 235
-334 343 -407 829 -685 1350 -772 138 -23 282 -31 455 -25 441 14 840 145
1200 394 265 184 519 459 671 727 148 261 211 445 281 810 20 106 17 543 -5
660 -34 180 -38 201 -59 270 -181 620 -607 1129 -1178 1410 -226 112 -402 165
-711 214 -79 13 -491 12 -569 0z m451 -650 c94 -9 201 -32 347 -73 61 -17 263
-112 337 -159 94 -59 222 -163 298 -242 117 -120 236 -295 303 -444 19 -42 39
-85 44 -96 10 -22 52 -164 69 -235 50 -209 41 -568 -19 -750 -4 -14 -16 -52
-25 -85 -17 -58 -44 -122 -97 -230 -139 -285 -410 -555 -698 -696 -260 -126
-450 -171 -730 -170 -191 0 -317 21 -501 82 -214 70 -431 201 -599 361 -61 57
-220 248 -220 263 0 4 -11 21 -24 38 -20 28 -125 236 -147 292 -40 105 -77
279 -90 423 -18 200 0 379 58 582 32 111 46 148 96 250 105 215 274 426 442
550 33 25 62 47 65 51 15 16 157 100 240 141 106 51 213 87 380 128 114 27
315 35 471 19z"/>
</g>
</svg>
